<svg width="817" height="945" viewBox="0 0 817 945" fill="none" xmlns="http://www.w3.org/2000/svg">
<path d="M114 40.1597L329.576 504.635L517.27 145.568" stroke="url(#paint0_linear_2533_109)" stroke-width="80.3" stroke-linecap="round" stroke-linejoin="round"/>
<path d="M698.844 504.635L537.672 327.821L689.323 40.1597L230.289 40.1597L330.936 256.416" stroke="url(#paint1_linear_2533_109)" stroke-width="80.3" stroke-linecap="round" stroke-linejoin="round"/>
<path d="M153.365 633.24L93.9293 811.546C90.7453 819.683 85.0848 823.752 76.9478 823.752C68.457 823.752 62.6196 819.683 59.4355 811.546L0.796011 633.24H39.0045L76.9478 756.356L114.891 633.24H153.365ZM319.215 822.16H276.496L239.614 752.111H213.08V822.16H176.198V673.836C176.198 659.685 179.471 649.425 186.016 643.057C192.561 636.512 203.528 633.24 218.918 633.24H250.227C268.978 633.24 283.837 638.989 294.804 650.487C305.948 661.808 311.52 676.224 311.52 693.737C311.52 706.473 308.159 717.528 301.437 726.904C294.892 736.102 286.755 742.47 277.026 746.008L319.215 822.16ZM247.839 721.332C255.623 721.332 261.991 718.678 266.944 713.371C272.073 707.888 274.638 701.166 274.638 693.206C274.638 685.069 272.162 678.524 267.209 673.571C262.433 668.618 255.976 666.141 247.839 666.141H229.531C218.564 666.141 213.08 671.714 213.08 682.858V721.332H247.839ZM472.659 666.141H421.979V822.16H385.097V666.141H334.683V633.24H472.659V666.141ZM625.835 822.16H558.97C537.743 822.16 522.796 818.533 514.128 811.281C505.637 803.851 501.392 790.85 501.392 772.276V633.24H625.835V666.141H538.274V710.453H599.566L596.913 743.355H538.274V769.623C538.274 777.052 539.954 782.182 543.315 785.012C546.676 787.843 552.779 789.258 561.623 789.258H625.835V822.16ZM747.218 722.128L812.226 822.16H769.241L724.665 750.784L698.927 785.278V822.16H662.045V633.24H698.927V738.844L770.303 633.24H807.45L747.218 722.128Z" fill="#031336"/>
<path d="M43.9226 916.834H56.7127C56.7127 925.824 54.4654 932.731 49.9707 937.556C45.476 942.382 39.1305 944.794 30.9342 944.794C12.8893 944.794 3.86678 934.185 3.86678 912.968V907.019C3.86678 890.296 8.49369 879.819 17.7475 875.589C21.383 873.87 25.7785 873.011 30.9342 873.011C38.4695 873.011 44.5836 875.093 49.2766 879.257C54.0357 883.355 56.4153 889.304 56.4153 897.104H43.526C42.799 893.204 41.51 890.263 39.6593 888.28C37.8085 886.297 34.9001 885.305 30.9342 885.305C26.3073 885.305 22.8702 886.759 20.6228 889.668C19.0364 891.717 18.1111 895.22 17.8467 900.177C17.7145 901.764 17.6484 903.912 17.6484 906.622V912.769C17.6484 920.371 18.706 925.559 20.8211 928.336C23.0024 931.112 26.3734 932.5 30.9342 932.5C35.5611 932.5 38.7339 931.244 40.4524 928.732C42.2371 926.154 43.3938 922.188 43.9226 916.834ZM144.996 905.631V910.985C144.996 922.816 142.749 931.409 138.254 936.763C133.826 942.117 126.687 944.794 116.838 944.794C106.99 944.794 99.851 942.117 95.4224 936.763C91.0598 931.409 88.8786 922.717 88.8786 910.687V905.531C88.8786 894.559 91.0929 886.396 95.5215 881.042C100.016 875.688 107.089 873.011 116.739 873.011C126.456 873.011 133.594 875.721 138.155 881.141C142.716 886.561 144.996 894.724 144.996 905.631ZM131.215 910.687V907.019C131.215 900.673 130.422 895.617 128.835 891.849C126.985 887.486 123.019 885.305 116.938 885.305C110.79 885.305 106.791 887.486 104.941 891.849C103.42 895.418 102.66 900.475 102.66 907.019V910.687C102.66 919.214 103.85 924.964 106.23 927.939C107.155 929.195 108.51 930.285 110.295 931.211C112.145 932.07 114.327 932.5 116.838 932.5C119.416 932.5 121.597 932.07 123.382 931.211C125.167 930.352 126.555 929.294 127.546 928.038C128.538 926.782 129.298 925.13 129.827 923.081C130.752 919.842 131.215 915.711 131.215 910.687ZM236.863 873.606V937.061C236.863 939.242 236.202 941.126 234.88 942.712C233.558 944.232 232.004 944.992 230.22 944.992C225.659 944.992 221.924 942.348 219.016 937.061L194.625 898.889V944.199H180.844V873.606H194.13L223.081 919.809V873.606H236.863ZM323.54 923.378C323.54 930.054 321.094 935.309 316.203 939.143C311.311 942.91 305.065 944.794 297.464 944.794C291.449 944.794 285.632 943.142 280.014 939.837C277.238 938.118 274.957 935.706 273.173 932.599C271.388 929.426 270.496 925.824 270.496 921.792L282.988 921.197C282.988 924.766 284.508 927.542 287.549 929.525C290.59 931.508 293.961 932.5 297.662 932.5C305.924 932.5 310.056 929.591 310.056 923.775C310.056 919.016 307.246 916.206 301.628 915.347L290.127 914.157C284.376 913.298 279.815 911.249 276.444 908.01C273.073 904.771 271.388 900.111 271.388 894.03C271.388 887.949 273.8 882.926 278.626 878.96C283.451 874.994 289.532 873.011 296.869 873.011C304.272 873.011 310.221 874.895 314.716 878.662C319.21 882.364 321.458 887.156 321.458 893.039L309.163 893.634C308.04 887.883 304.173 885.008 297.563 885.008C293.531 885.008 290.358 885.867 288.045 887.586C285.797 889.304 284.674 891.353 284.674 893.733C284.674 896.046 285.5 897.897 287.152 899.285C288.805 900.607 290.854 901.433 293.3 901.764L304.602 902.954C317.227 904.672 323.54 911.48 323.54 923.378ZM411.169 873.606V920.007C411.169 927.675 408.558 933.723 403.336 938.151C398.181 942.58 391.802 944.794 384.201 944.794C376.599 944.794 370.188 942.58 364.966 938.151C359.81 933.723 357.232 927.675 357.232 920.007V873.606H371.014V919.511C371.014 923.874 372.204 927.146 374.583 929.327C377.029 931.442 380.235 932.5 384.201 932.5C388.167 932.5 391.372 931.442 393.818 929.327C396.264 927.146 397.486 923.874 397.486 919.511V873.606H411.169ZM493.855 944.199H472.836C464.904 944.199 459.154 942.679 455.584 939.638C452.081 936.532 450.329 931.508 450.329 924.568V873.606H464.111V924.568C464.111 927.344 464.739 929.261 465.995 930.318C467.251 931.376 469.531 931.905 472.836 931.905H493.855V944.199ZM575.534 885.9H556.597V944.199H542.815V885.9H523.977V873.606H575.534V885.9ZM624.839 944.199H611.058V873.606H624.839V944.199ZM721.081 873.606V937.061C721.081 939.242 720.42 941.126 719.098 942.712C717.776 944.232 716.223 944.992 714.438 944.992C709.877 944.992 706.143 942.348 703.235 937.061L678.844 898.889V944.199H665.063V873.606H678.348L707.3 919.809V873.606H721.081ZM755.805 910.985V902.26C755.805 893.072 758.217 885.9 763.043 880.744C767.868 875.589 774.544 873.011 783.071 873.011C791.597 873.011 798.438 875.589 803.594 880.744C807.23 884.38 809.047 889.833 809.047 897.104H796.158C796.158 889.238 791.961 885.305 783.566 885.305C781.054 885.305 778.906 885.801 777.122 886.792C775.403 887.718 774.114 888.808 773.255 890.064C772.396 891.32 771.735 893.171 771.272 895.617C770.809 898.062 770.545 900.111 770.479 901.764C770.413 903.416 770.38 905.631 770.38 908.407C770.38 911.183 770.38 913.067 770.38 914.058C770.446 914.984 770.545 916.537 770.677 918.718C770.875 920.833 771.14 922.354 771.47 923.279C771.867 924.204 772.396 925.394 773.057 926.848C773.784 928.302 774.676 929.327 775.734 929.922C778.444 931.64 781.517 932.5 784.954 932.5C790.705 932.5 794.77 930.054 797.15 925.163V920.404H788.623V908.902H808.948V930.219C806.899 935.045 803.66 938.68 799.232 941.126C794.803 943.571 789.78 944.794 784.161 944.794C774.18 944.794 766.942 942.018 762.448 936.466C758.019 930.847 755.805 922.354 755.805 910.985Z" fill="#646E94"/>
<defs>
<linearGradient id="paint0_linear_2533_109" x1="517.27" y1="272.397" x2="114" y2="272.397" gradientUnits="userSpaceOnUse">
<stop stop-color="#B3BFFF" stop-opacity="0.992157"/>
<stop offset="1" stop-color="#234BA2"/>
</linearGradient>
<linearGradient id="paint1_linear_2533_109" x1="697.87" y1="505.147" x2="404.913" y2="-51.7088" gradientUnits="userSpaceOnUse">
<stop stop-color="#234BA2"/>
<stop offset="1" stop-color="#B3BFFF" stop-opacity="0.992157"/>
</linearGradient>
</defs>
</svg>
