<svg width="606" height="496" viewBox="0 0 606 496" fill="none" xmlns="http://www.w3.org/2000/svg">
<path fill-rule="evenodd" clip-rule="evenodd" d="M67.6408 20.5075C59.395 2.77171 38.3084 -4.9329 20.5424 3.29881C2.77642 11.5305 -4.94129 32.5814 3.30442 50.3172L200.535 474.543C206.22 486.771 218.368 494.715 231.867 495.032C245.367 495.349 257.876 487.986 264.132 476.039L435.852 148.087C444.926 130.758 438.211 109.368 420.852 100.31C403.494 91.2523 382.068 97.9567 372.994 115.285L234.592 379.605L67.6408 20.5075ZM266.09 217.99C274.355 235.717 266.659 256.776 248.902 265.027C231.145 273.278 210.05 265.595 201.785 247.868L109.703 50.3514C104.591 39.387 105.44 26.5765 111.952 16.3792C118.465 6.18196 129.741 0.00885129 141.856 0.00885296L561.825 0.00887085C574.251 0.00888788 585.772 6.5023 592.191 17.1248C598.61 27.7473 598.992 40.9491 593.196 51.9233L466.063 292.668L596.745 435.788C609.94 450.239 608.902 472.631 594.426 485.803C579.951 498.975 557.52 497.939 544.326 483.488L396.87 321.998C386.804 310.972 384.739 294.832 391.708 281.636L503.038 70.8167L197.478 70.8166L266.09 217.99Z" fill="url(#paint0_linear_2391_96)"/>
<defs>
<linearGradient id="paint0_linear_2391_96" x1="606.002" y1="247.521" x2="0" y2="247.521" gradientUnits="userSpaceOnUse">
<stop stop-color="#234BA2"/>
<stop offset="1" stop-color="#B3BFFF" stop-opacity="0.992157"/>
</linearGradient>
</defs>
</svg>
